<?xml version="1.0" standalone="no"?>
<svg viewBox="0 0 200 200" xmlns="http://www.w3.org/2000/svg">
  <path fill="#f7ebef" d="M30.4,-57.1C36.5,-49.1,36.7,-35.2,46.6,-24.7C56.4,-14.2,75.9,-7.1,82.8,4C89.6,15,83.8,30,74.6,41.6C65.4,53.3,52.8,61.5,39.8,56.3C26.8,51.1,13.4,32.6,0.4,31.8C-12.6,31.1,-25.1,48.2,-27,46.9C-28.8,45.6,-20,26.1,-29.4,15.2C-38.8,4.3,-66.3,2.2,-76.7,-6C-87,-14.1,-80.2,-28.2,-70.6,-38.7C-60.9,-49.1,-48.5,-55.9,-36.3,-60.4C-24.1,-65,-12.1,-67.3,0,-67.4C12.1,-67.4,24.2,-65.2,30.4,-57.1Z" transform="translate(100 100)" />
</svg>
